# xmcd CD database file
#
# Track frame offsets:
#	150
#	22947
#	43632
#	69169
#	91083
#	110683
#	128890
#	148932
#	170069
#	190303
#	208558
#	225792
#	246302
#	264661
#	283935
#	301962
#
# Disc length: 4271 seconds
#
# Revision: 0
# Processed by: cddbd v1.5PL3 Copyright (c) Steve Scherf et al.
# Submitted via: CDex 1.50
#
DISCID=e310ad10
DTITLE=松任谷由実 - Neue Musik〜YUMI MATSUTOYA COMPLETE BEST VOL.1 Disc 2
DYEAR=1998
DGENRE=New Age
TTITLE0=リフレインが叫んでる
TTITLE1=最後の嘘
TTITLE2=真珠のピアス
TTITLE3=DANG DANG
TTITLE4=青いエアメイル
TTITLE5=VOYAGER〜日付のない墓標
TTITLE6=春よ、来い
TTITLE7=ANNIVERSARY
TTITLE8=輪舞曲(ロンド)
TTITLE9=DOWNTOWN BOY
TTITLE10=シンデレラ・エクスプレス
TTITLE11=カンナ8号線
TTITLE12=真夏の夜の夢
TTITLE13=groove in retro
TTITLE14=愛は...I can’t wait for you,anymore
TTITLE15=卒業写真（Special track）
EXTD=YEAR: 1998
EXTT0=
EXTT1=
EXTT2=
EXTT3=
EXTT4=
EXTT5=
EXTT6=
EXTT7=
EXTT8=
EXTT9=
EXTT10=
EXTT11=
EXTT12=
EXTT13=
EXTT14=
EXTT15=
PLAYORDER=
